<?xml version="1.0" encoding="UTF-8"?> <svg xmlns="http://www.w3.org/2000/svg" xmlns:xlink="http://www.w3.org/1999/xlink" width="481.992" height="284.333" viewBox="0 0 481.992 284.333"><defs><clipPath id="clip-path"><rect id="Rectangle_3596" data-name="Rectangle 3596" width="155.376" height="86.604" fill="#6e47d1"></rect></clipPath></defs><g id="Group_1527" data-name="Group 1527" transform="translate(-154 -1170.025)"><path id="Path_15206" data-name="Path 15206" d="M5526.323,3722.275a9.557,9.557,0,0,1-1.1,1.058,11.064,11.064,0,0,1-1.413.746,6.061,6.061,0,0,0-1.705,1.591,5.582,5.582,0,0,0-.667,1.392c-.121.384-.058.874-.349,1.179-.412-.206-.312-.738-.71-.973a3.148,3.148,0,0,0-1.477.007c-.795.313-1.286,1.521-2.023,2.01-1.024.675-2.977-.241-3.715,1.144a1.07,1.07,0,0,0,.37,1.292c.334.305.534.163.689.61a6.508,6.508,0,0,1,.013.924c.449.049.917-.008,1.364.042.22,1-1.143,3.189-2.251,2.479-.2-.128-.021-.413-.376-.561a1.3,1.3,0,0,0-.91.142c-.4.419.37.816.171,1.441a2.077,2.077,0,0,0-1.583,1.051c-.4.533-.534.816-1.245.937-.845.135-1.562-.007-2.088.881-.424.725-.34,1.541.655,1.448.254.611-.668.753-1.009,1.03a1.33,1.33,0,0,0-.567,1.2c-.115,1.066-.42,2.1-.539,3.2a9.97,9.97,0,0,1-.022,1.285,4.356,4.356,0,0,0-.327,1.236,6.011,6.011,0,0,0,0,1.427c.143.569.4.583.9.9.752.462,1.7,1.093,1.163,2.13-.475.91-1.8.747-1.128,2.088a3.77,3.77,0,0,0,.632.781c.092.106.128.412.241.469.255.135.562-.071.825.058.425.2.617.852.745,1.256a6.853,6.853,0,0,0,.667,1.647c.4.434,1.314.149,1.783.64.518.533.241.938,1.107.866a1.554,1.554,0,0,0,.874-.4c.739-.5.93-.8.4-1.606a3.471,3.471,0,0,0-.716-.7c-.164-.164-.206-.348-.418-.5-.121-.085-.9-.327-.932-.383-.489-.888,1.811-.831,2.387-.682a1.461,1.461,0,0,1,1.236,1.427,3.493,3.493,0,0,0-.016.9c.144.355.6.448.739.88a6.538,6.538,0,0,1-.041,2.1c-.468.213-.583-.433-1.031-.51-.624-.108-.809.391-1.192.76-.952.909-1.4,1.881-2.7,2.222-.07-.511.044-1.029-.049-1.534-.448-.178-.477.113-.732.327-.227.191-.377.4-.618.582-.511.385-1.066.788-1.641,1.158-.887.574-1.057.319-1.769-.312a2.669,2.669,0,0,0-2.47-.682,8.9,8.9,0,0,0,.006,2.6c.093.412.641,1.122.355,1.6-.214.362-1.2.541-1.633.7a13.3,13.3,0,0,1-2.664.567c-1.285.178-1.171,1.285-1.811,2.116s-1.854.718-2.79.732a3.964,3.964,0,0,0-2.677,1.243c-.525.5-1.171.987-1.761,1.477a15.148,15.148,0,0,0-1.607,1.137h-.006a1.061,1.061,0,0,0-.32,1.086c1.075.149,1.77-.483,2.657-.994a11.561,11.561,0,0,0,1.229-.79c.768-.589.8-.4,1.861-.489.781-.064,2.471.035,2.934-.71.312-.5.625-2,1.37-2.123.866.866.859,1.037,1.911.341.419-.284.738-.192,1.107-.392s.4-.66.91-.467a1.991,1.991,0,0,1-.91,1.341c-.824.633-1.05,1.505-1.9,2.045a18.243,18.243,0,0,0-2.272,1.605,7.662,7.662,0,0,1-1.96,1.022c-.931.44-2.1.348-2.917,1.009-.491.383-.8,1.015-1.287,1.462-.71.653-3.415,2.4-3.848.923a6.188,6.188,0,0,0-1.222-.065c-.8.058-1.478.385-1.214,1.421a11.237,11.237,0,0,0,1.4.391c.554.029.973-.163,1.257.348a6.735,6.735,0,0,1,.035,2.444c-.042,1.122-.284,2.322-.413,3.451a13.3,13.3,0,0,0,.192,1.931c.021.825-.376.86-.858,1.414-.6.7-.4,1.726-.392,2.663a7.447,7.447,0,0,1-.695,2.833c-.241.547-.526,1.08-.761,1.641-.177.4-.325,1.235-.673,1.534-.953.8-1.166-.64-1.378-1.257s-.149-.717-.746-.845c-.547-.114-1.085.128-1.612-.127a3.9,3.9,0,0,0-2.449-.739c-.107.917-.064,1.208.645,1.761.513.4,1.03.789,1.5,1.194.852.738,1.306,1.725,2.131,2.527.795.782,1.292,1,1.42,2.152.049.419.092.823.113,1.221a5.755,5.755,0,0,1-.292,2.486,6.239,6.239,0,0,1-.746,1.413,7.924,7.924,0,0,0-.5.71c-.127.234-.468.682-.539.888a10.027,10.027,0,0,0-.385,3.2,8.024,8.024,0,0,1-.98,3.692c-.517,1.158-.433,2.642-1.016,3.757-.609-.092-.489-3.876-.489-4.473a7.149,7.149,0,0,1,.484-2.578c.248-.71.724-1.137.554-1.968-.52-.078-.8.057-1.23-.292a6.478,6.478,0,0,1-1.022-1.341c-.34-.639.171-2.138-.78-2.138-.6-.007-.76.661-1.386.206-.49-.362-.547-1.285-.746-1.761-.177-.433-.759-.937-.81-1.406-.106-.881.895-.682,1.215-1.442-.74-.078-1.441.228-1.833-.554a9.275,9.275,0,0,1-.355-1.947,16.872,16.872,0,0,1-.292-4.566c-.469.277-.717.838-1.08,1.229-.411.447-1.073.816-1.42,1.229-.59.688-.021.789.184,1.42.306.98-.476,1.265-.859,1.989a1.236,1.236,0,0,0-.05,1.364c.149.241.589.354.7.6a2.8,2.8,0,0,1,.028,1.029c.014,1.6,1.107,1.726,1.946,2.791.433.546.789.738.9,1.391.121.71-.079.853-.71.923-.561.064-1.228-.2-1.74-.142-1,.114-.589.71.22,1.037a10.663,10.663,0,0,0,2.037.655,3.65,3.65,0,0,1,1.925.809c.81.7.655,1.9.555,2.939a3.463,3.463,0,0,1-2.117-.177c-.22-.128-2.038-1.435-1.52-.156.249.618,2.039.986,2.635,1.064a2.772,2.772,0,0,1,1.91.853c.349.412.824,1.107.349,1.6-.434.454-1.292.1-1.812.341a1.062,1.062,0,0,0-.638.575c-.306.767.44.9.986,1.115.632.248,2.053.638,1.108,1.377-.433.342-1.136.313-1.471.846-.581.923.817,1.2,1.478.895.6-.277.717-.979,1.236-1.378a2.306,2.306,0,0,1,2.442-.134,3.957,3.957,0,0,1,1.606,3.813c-.085.369-.241.639-.285.9s.022.525.4.88c.25.228.448.007.633.383a2.754,2.754,0,0,1-.035,1.044c-.505.072-1.556-.128-1.9.419-.747,1.186,1.186,1.84,1.881,2.052-1.221.433-2.691-.2-3.871.206-.546.191-.873,1.022-1.4,1.221-.617.242-1.589-.241-2.314-.114.533,1.612,3.352.177,4.318-.064,1.058-.262,2.194-.688,2.954.178a3.623,3.623,0,0,1,.917,1.42c.83.37.774-.8.994-1.221.292-.555.667-.726.938-.043a6.128,6.128,0,0,1-.008,2,2.343,2.343,0,0,1-.169.91c-.115.248-.449.411-.506.689-.156.738.717,1.334.511,2.13-.375,1.42-3,.9-3.948.583a7.13,7.13,0,0,0-2.117-.377c-1.335-.057-.547-.532-1.179-1.278a.761.761,0,0,0-.752-.171c-.668.106-.462.121-.542.718-.112.852.065,1.1-.523,1.74a10.246,10.246,0,0,0,1.242.035c.568.05.547.178,1.051.362.761.285,1.548.078,1.79.881.128.433.064,1.846-.348,2.1-.206.136-.5-.042-.725.007-.32.085-.426.3-.71.4-.319.106-.688.022-1.029.185-.084.554-.228,1.449.306,1.718.986.5,1.64-.4,2.286-.873.468-.348,1.535-.846,2.173-.491s.348,1.35.179,1.791c-.25.646-.555,1.57-1.251,1.732-.6.149-1.206.064-1.8.221a16.317,16.317,0,0,0-2.272,1.029c-.8.341-.875.291-.924,1.208a2.776,2.776,0,0,0-2.117.909,16.111,16.111,0,0,0-.909,2.052c-.639,1.1-1.91,1.229-2.109,2.671-.155,1.107-.4,2.187-.511,3.309a4.108,4.108,0,0,1-1.562,2.613c-.085-.689-1.534-4.19-2.641-2.521-.2.306.056.661-.093.988s-.6.618-.86.844a18.039,18.039,0,0,0-1.462,1.372,6.476,6.476,0,0,0-1.734,2.883,9.11,9.11,0,0,0-.355,2.351c-.013,1.072-.766,1.321-1.036,2.265-.3,1.058.4,1.726-1.065,2.1-.376.1-.547,0-.875.2s-.312.477-.566.681c-.285.235-.634.313-.909.561-.242.213-.255.455-.512.675-.434.384-1.03.419-1.257,1.1-.092.263.086.625.014.888-.156.59-.211.418-.667.752a7.59,7.59,0,0,0-1.505,1.386,11.8,11.8,0,0,1-1.2,1.427c-.7.569-1.294.114-2.082.412-.07.561.454.9.27,1.514-.646.07-1.526-.285-2.08-.143-.156,1.058.042,2.087-.206,3.14a2.385,2.385,0,0,1-.519,1.292c-.291.32-.816.5-1.044.867a9.412,9.412,0,0,0-.39,1.441,5.783,5.783,0,0,1-.535,1.1,6.048,6.048,0,0,0-.539,1.158c-.149.54.129,1.222.029,1.775-.122.654-.476.674-.774,1.1a2.854,2.854,0,0,0-.49,1.434,11.809,11.809,0,0,0,0,2.3,8.546,8.546,0,0,0,.319.916,4.642,4.642,0,0,0,.44,1.754c.087.134.171.27.249.4h.007a40.525,40.525,0,0,1,3.438,6.513,25.444,25.444,0,0,0,2.117,4.751c.6.924,1.136,1.832,1.774,2.748a12.268,12.268,0,0,1,1.791,2.8,11.732,11.732,0,0,0,2.614,3.728c.476.491.959.958,1.455,1.5a5.951,5.951,0,0,1,1.03,2.259c.525,1.491-.2,3.1.752,4.395.626.86,1.08,1.8,1.669,2.671.441.653,1.037,1.2,1.485,1.847a18.286,18.286,0,0,1,2.748,4.629,12.865,12.865,0,0,0,.668,2.045,7.413,7.413,0,0,1,.7,2.486c.17,1.456.142,2.933.184,4.438.021.8.271,1.533.362,2.308.114,1.008.625,1.911.7,2.884.079.9-.575,1.448-.709,2.265a15.6,15.6,0,0,0,0,2.3,2.061,2.061,0,0,1-.846,2,8.9,8.9,0,0,1-2.386,1.69,7.041,7.041,0,0,1-2.458.61c-.667.093-1.427.7-2.116.512-.562-.157-.576-.355-.541-.9.05-.653.34-.418.547-.837.4-.826-.7-1.165-1.215-1.634-1.292-1.171-2.251-3.039-3.92-3.607a12.38,12.38,0,0,1-1.307-.668c-.546-.255-1.052-.284-1.57-.525a1.249,1.249,0,0,1-.7-.937c-.15-.441-.32-.76-.5-1.193-.142-.333.014-.965-.242-1.256a3.164,3.164,0,0,0-1.214-.526,6.019,6.019,0,0,1-1.782-1.058c-.5-.362-1.342-.916-1.25-1.6.057-.391.533-.8.681-1.2a2.655,2.655,0,0,0,.2-1.442c-1.03-.4-1.321,1.428-2.111,1.612-.631.142-.673-.34-.858-.753a11.688,11.688,0,0,0-1.066-1.448,10.457,10.457,0,0,1-.5-1.57,19.137,19.137,0,0,0-1.7-2.691,3.4,3.4,0,0,1-.625-1.384c-.1-.7.206-.874.531-1.457.385-.688.625-1.378-.4-1.385-.667-.014-.759.391-1.242.675-1.421.837-1.776-.555-1.769-1.734a9.976,9.976,0,0,1,.042-2.058,10.319,10.319,0,0,0,.49-1.811c.056-1.307,0-2.635,0-3.948,0-1.13.036-2.395-.759-3.245a10.268,10.268,0,0,0-2.473-2.43,10.744,10.744,0,0,0-1.092-.4c-.178-.057-.674-.235-.824-.305a5.372,5.372,0,0,1-1.683-1.478c-.62-.739-1.165-1.52-1.74-2.322-.271-.376-.533-.768-.838-1.115-.057-.057-.518-.547-.568-.576a10.457,10.457,0,0,1-1.427-.731,18.081,18.081,0,0,1-1.917-1.847,2.867,2.867,0,0,0-3.054-.688,4.887,4.887,0,0,0-1.562.781,15.053,15.053,0,0,0-1.1,1.711c-.4.511-.979.8-1.378,1.271-.559.675-.148,1.378-.894,1.924a9.209,9.209,0,0,1-3.132,1.613c.028-.54.838-.881.953-1.506-.669-.462-1.123.667-1.535,1a1.586,1.586,0,0,1-1.961.042,4.537,4.537,0,0,1-1.548-1.967,5.122,5.122,0,0,0-1.832-1.782,28.209,28.209,0,0,0-4.077-1.62c-.972-.391-2.555-1.683-3.586-1.6-.355.029-.823.377-1.264.426a10.733,10.733,0,0,0-1.356.1,25,25,0,0,1-2.848.49,14.554,14.554,0,0,0-2.67.22c-1,.313-1.782,1.052-2.805,1.264-.319.064-.794-.156-1.094-.035-.476.178-.873.7-1.384.952-.412.206-1.669.674-2.01.142-.249-.391.3-.81.333-1.087.085-.54.092-.2-.27-.731-.454-.675-.844-3.366-1.973-2.969-.086.881.73,3.337-.008,3.948-.39.313-1.462.113-1.924.113a7.98,7.98,0,0,0-1.285.065,4.1,4.1,0,0,0-1.015.291,2.5,2.5,0,0,1-2.146.057c-.774-.248-1.932-.732-2.706-.248-.191.121-.51.6-.7.767a4.238,4.238,0,0,1-.88.682,5.538,5.538,0,0,1-1.414.362l-.028.006a14.2,14.2,0,0,0-1.577.279l-.063.013a3.6,3.6,0,0,0-.491.17c-.511.212-.816.589-1.406.575a4.9,4.9,0,0,1-1.675-.425,4.274,4.274,0,0,0-2.28-.462c-.909,0-1.57-.264-1.727.709a8.92,8.92,0,0,0-.013,2.3c.162,1.044.511,1.257,1.434,1.25,1.57-.007,2.437-1.165,3.879-1.676.063.319,0,.632.056.944a7.724,7.724,0,0,0,1.576.021c.638-.071.838-.44,1.378-.688a3.41,3.41,0,0,1-.5,2.74,2.205,2.205,0,0,0-.71,2.025c.092.88.618,2.258,1.555,2.506,1.334.362,1.825-.7,2.89.554.4.469,1.9,2.223,1.215,2.919s-1.952-1.421-2.507-1.677c-1.527-.7-4.474-.15-4.417-2.669a6.592,6.592,0,0,0-2.116-.036c-.732.191-.859.7-.874,1.435-.014.938.476,3.765-1.229,3.345.136-1.222-.687-1.7-1.781-1.755a1.853,1.853,0,0,0-1.747.548c-.44.4-.945,1.1-1.641.845-.35-.128-.582-.7-.917-.867-.539-.27-1.208.064-1.739-.156-.64-.27-.632-1.072-.888-1.6a1.861,1.861,0,0,0-.937-.93,26.771,26.771,0,0,0-2.969-.987,9.753,9.753,0,0,1-2.713-1.47c-.54-.434-1.952-1.371-2.578-.718-.54.561.021,1.52-.241,2.151a2.183,2.183,0,0,1-2.094,1.059c-.937.014-1.918.064-2.863.007-1.505-.093-2.258-.9-3.536-1.427-3-1.236-6.044-.662-8.928.284l-.788.262a3.322,3.322,0,0,0-1.108.483,4.955,4.955,0,0,1-1.576.76,5.093,5.093,0,0,0-2.244,1.413,2.05,2.05,0,0,1-1.343.533,3.072,3.072,0,0,1-1.2-.4c-.809-.945.59-1.548.292-2.429a17.2,17.2,0,0,0-2.281.156c-1.6.178-.105,1.428.541,1.953,1.079.881.525,1.115-.177,2a9.988,9.988,0,0,1-1.961,1.9c-.547.412-.482.739-.71,1.264a2.124,2.124,0,0,1-.489.682,10.043,10.043,0,0,1-1.677,1.747,12.862,12.862,0,0,1-2.095,1.1,25.139,25.139,0,0,0-2.663,1.619c-.5.319-2.06,1.441-2.643,1.022-.383-.277-.062-.569-.539-.824a2.271,2.271,0,0,0-1.6.135c-1.187.476-.406,1.149-.719,2.1-.291.9-1.171.824-1.939.526-1.419-.539-.993.021-1.285,1.1s-1.3.8-2.1,1.243c-1.094.6-.8,1.186-.932,2.315a2.018,2.018,0,0,1-.446,1.258c-.39.32-.837-.029-1.3.191a1.156,1.156,0,0,0-.526,1.215c.171.5.839.4,1.4.561a1.933,1.933,0,0,1-.54,1.7,11.878,11.878,0,0,0-.988,1.69c-.7,1.256-1.875.12-2.869.887-.3.228.945.354.951.354.5.015,1.051-.142,1.421.3,1.1,1.342-1.051,2.955-.752,4.318a7.984,7.984,0,0,0,.661,1.732c.3.526.837.782.909,1.414.106.845-.376.973-.719,1.6a4.442,4.442,0,0,0-.176,2c-.008,1.122.157,1.214,1.072,1.683a2.484,2.484,0,0,1,1.306,2.187,4.053,4.053,0,0,1-.533,1.861,2.559,2.559,0,0,1-.148-.5c-.072-.383.034-.824-.015-1.207-.668-.271-1.406.759-1.428,1.349-1.769.262-2.642-.653-3.821-1.861-1.165-1.186-3-.625-4.673-.71a2.138,2.138,0,0,1-2.124-1.314c-.312-.524-.526-1.611-.98-1.967-.533-.412-2.129-.206-2.755-.263a6.186,6.186,0,0,1-2.138-.517c-1.072-.839-1.9-3.02-2.458-4.148-.389-.789-.993-1.427-1.384-2.209a8.064,8.064,0,0,1-.512-2.024c-.212-1.3.347-4.247-.455-5.262-.254-.32-.859-.377-1.149-.533a3.159,3.159,0,0,1-.959-.6,4.447,4.447,0,0,1-.937-1.223c-.731-1.27-.888-1.917-2.116-2.725a4.19,4.19,0,0,1-1.854-2.551c-.341-1.491.128-2-1.072-3.273a6.221,6.221,0,0,1-1.6-2.415c-.306-.909-.349-2.173-.732-3.068-.356-.837-1.357-1.391-1.8-2.208a8.9,8.9,0,0,1-.532-1.1,6.63,6.63,0,0,0-.455-1.193c-.8-1.037-1.122-1.022-2.378-1.165-1.94-.213-1.847-1.734-3.083-2.622a5.885,5.885,0,0,0-3.487-.709c-1.228.006-2.791.276-3.671-.7-.646-.724-.86-1.888-2.03-.718-.213.214-.177.625-.491.9a10.509,10.509,0,0,1-1.164.412,6.771,6.771,0,0,0-1.292.76,2.619,2.619,0,0,0-1.3,2.194c-.144,1.187-.123,1.911-1.01,2.784-.688.682-1.264,1.072-1.214,2.146a6.323,6.323,0,0,1-3.294-.242c-.945-.532-1.471-1.705-2.586-2.159-2.017-.824-4.672-.6-5.638-2.755-.24-.561-.185-1.286-.811-1.633-.4-.22-.972.128-1.376-.029a3.766,3.766,0,0,1-1.7-2.138,8.485,8.485,0,0,1-.177-2.372,5.251,5.251,0,0,1-.014-.952c.071-.327.376-.312.448-.519a4.268,4.268,0,0,0,.29-1.612c-.135-.731-.355-.6-.909-.994a2.187,2.187,0,0,1-1-1.364c-.113-.489.234-1.235-.021-1.668-.263-.454-1.25-.646-1.64-.932a9.319,9.319,0,0,1-1.165-1.121c-.81-.824-1.314-1.824-2.139-2.621-.732-.7-1.626-1.265-2.371-1.959a5.235,5.235,0,0,1-1.655-2.416c-.418-1.043-.248-.425-.958-.873a9.3,9.3,0,0,1-.937-.653c-1.647-1.414-.781-4.616-3.6-3.885a5.386,5.386,0,0,1-.9.164,25.545,25.545,0,0,1-5.461-.264q-4.846-.4-9.687-.816l-.71,4.261-5.63-.752-2.209-.3-18.676-2.5-33.377-19.174.476-2.131-21.376-1.633c-.036-.134-.064-.284-.1-.44-.192-.773-.917-1.186-1.073-1.954a12.513,12.513,0,0,1,0-2.307,6.815,6.815,0,0,0-1.2-3.934,6.633,6.633,0,0,1-.44-1.03,2.533,2.533,0,0,0-.5-.931,24.455,24.455,0,0,1-1.641-2.1,13.926,13.926,0,0,0-2.628-3.338c-.767-.682-1.853-.937-2.109-1.988a2.585,2.585,0,0,0-1.555-1.775,15.288,15.288,0,0,1-2.137-.874,12.556,12.556,0,0,1-1.867-1.875,10.37,10.37,0,0,0-3.282-3.06,20.111,20.111,0,0,0-2.556-1.3c-.462-.157-1.065-.028-1.527-.234-.249-.106-.44-.362-.71-.482-.106-.043-.5-.086-.618-.122a4.648,4.648,0,0,1-1.6-.73,4.267,4.267,0,0,1-1.569-2.139,7.266,7.266,0,0,1,.74-2.315,3.491,3.491,0,0,0,.113-2.258,4.2,4.2,0,0,0-.839-1.818c-.695-.873-.461-1.846-.879-2.841-.569-1.349-1.818-2.335-2.281-3.714-.418-1.25-.7-2.684-1-3.97a9.234,9.234,0,0,0-.817-2.089,7.376,7.376,0,0,1-1.015-1.817c-.3-1.391-.562-2.769.66-3.735.831-.653.915-.731.9-1.86a2.242,2.242,0,0,0-.349-1.484c-.234-.32-.553-.384-.561-.839-.987-.049-2.542-.191-2.777-1.271a1.4,1.4,0,0,1,.413-1.441,1.68,1.68,0,0,0,.611-1.535c-.036-1.051-.774-1.556-.9-2.528-.177-1.385.775-.965,1.754-1.093a5.178,5.178,0,0,1,.426-2.3c.44-.668,1.35-1.385.633-2.245-.171-.213-1.1-.589-1.4-.369-.313.234-.072.582-.22.859-.242.441-.617.384-1.017.667-.44.313-1.085,1.256-1.739.859a4.853,4.853,0,0,1-.881-1.832,13.427,13.427,0,0,1-.034-2.67,9.381,9.381,0,0,0-.533-4.24c-.227-.49-.6-.916-.845-1.478-.306-.724-.625-1.4-.973-2.094a8.586,8.586,0,0,1-1.022-4c0-.633-.021-1.264,0-1.9a3.088,3.088,0,0,1,.667-1.775,4.5,4.5,0,0,0,.185-3.564c-.276-.611-.6-1.307-.888-1.911a3.75,3.75,0,0,1-.518-1.228,13.26,13.26,0,0,1-.333-1.826c-.036-1.05-.029-2.116,0-3.167a2.4,2.4,0,0,1,1.065-2.124c.76-.454,1.3-.191,1.6-1.243a3.694,3.694,0,0,0,.178-1.094,2.911,2.911,0,0,1,.511-1.7,8.584,8.584,0,0,0,1.08-2.415,31.457,31.457,0,0,0,.539-3.522,7.025,7.025,0,0,1,.178-2.124,7.481,7.481,0,0,0,.717-1.96,6.141,6.141,0,0,0-.362-2.308,5.072,5.072,0,0,1-.049-2.265,13.254,13.254,0,0,0,.759-2.564,5.854,5.854,0,0,1,.711-3.167c.482-.852,1.186-1.648,1.682-2.479.952-1.6,1.748-3.26,2.585-4.8a9.617,9.617,0,0,0,.562-1.1c.127-.312.255-.347.326-.66.064-.334-.042-.688.036-1.029a11.115,11.115,0,0,1,1.341-2.884,21.249,21.249,0,0,0,1.272-3.011c.44-1.193.852-2.407,1.406-3.557.511-1.072,1.348-1.981,1.8-3.075a15.052,15.052,0,0,0,.525-2.372c.32-1.271.789-2.508,1.108-3.786.107-.433.063-.809.135-1.25.092-.632.383-1.257.533-1.917a23.611,23.611,0,0,0,.788-2.983c-.554-.17-.916.085-.931-.589a3.356,3.356,0,0,1,.54-1.207,9.89,9.89,0,0,0,1.35-2.308,8.714,8.714,0,0,0,.027-2.159,28.488,28.488,0,0,1,.349-3.572,78.329,78.329,0,0,0,.184-9.758c0-.7-.062-1.434,0-2.13.08-.837-.062-2.095.888-2.131,1.108-.042,1.071.711,1.448,1.428.4.767,1.471,1.086,2.1,1.406a18.308,18.308,0,0,0,5.333,1.782,17.364,17.364,0,0,1,1.96.533c.547.156,1.5.242,1.9.752.546.682.105,1.314-.178,1.911-.227.483-.554.483.035.9.362.262,1.015.27,1.3.837.447.873-.306,1.527-.753,2.152-.355.49-.511,1.065-.823,1.577a10.209,10.209,0,0,0-.753,1.277c-.292.881-.228,2.052.859,1.96.817-.071,1.313-.987,1.427-1.783.049-.4-.057-.831-.015-1.236.064-.5.384-.688.512-1.057a6.186,6.186,0,0,1,.831-2.187,2.7,2.7,0,0,0,.618-2.082,2.9,2.9,0,0,0-1.236-1.782c.37-.462,1,.121,1.251-.639.419-1.285-1.406-.944-2.067-.952-.951-.014-1.235-.2-.711-1.058.562-.923,1.094-.7,1.912-.881.908-.2.674-.823.674-1.612a11.953,11.953,0,0,0,.007-1.6,6.791,6.791,0,0,0-.724-1.6,1.3,1.3,0,0,1,.127-1.3c.023-.036.036-.078.058-.121,0,0,15.908,4.672,41.41,9.92v.007q3.6.735,7.435,1.492,6.893,1.341,14.515,2.684h.008c9.047,1.59,18.813,3.132,29.13,4.523,13.884,1.875,28.762,3.459,44.215,4.5q9.545.639,19.344.98c10.461.354,21.092.426,31.78.128q7.095-.2,14.2-.625v-4.26l3.018-.356-.355,3.012a6.332,6.332,0,0,1,1.114,1.563,10.174,10.174,0,0,1,.27,1.285c.158.554.342.49.576.88.214.362.17.667.512.98.5.461,1.2.227,1.782.427s1.058.5,1.6.688a13.98,13.98,0,0,0,2.011.212c.646.142.54.5,1.043.731,1.357.619,2.06-1.456,2.99-1.626.548-.092.9.384,1.25.717.447.448.5.647,1.234.547.754-.106.655-.255,1.2.213.5.441.369.5,1.15.491.9-.008,2.549-.156,2.472,1.221,1.193.135,1.888-.355,2.947.29,1.285.782,1.7,1.89,3.373,2.267a1.482,1.482,0,0,0,1.677-.4,6.739,6.739,0,0,1,.7-.582,4.419,4.419,0,0,0,.526-.271c.106-.1.121-.4.177-.446.768-.64,2.665-.839,2.848.553a16.914,16.914,0,0,0,2.458-.149h2.3a9.036,9.036,0,0,1,2.67.718c.477.128.639.057.689.369a2.1,2.1,0,0,1,.021.334c.008.746-.3.717-.93.973a5.541,5.541,0,0,0-2.129,1.689c-.712.774-1.983.654-2.977,1.065a5.266,5.266,0,0,0-2.045,1.25c-.461.461-.9.972-1.405,1.406-.6.526-1.293.76-1.655,1.471-.227.426-.092.646-.525,1.029-.377.327-.874.525-1.25.88a30.693,30.693,0,0,0-2.848,3.586c-.483.611-1.122,1.292-.922,2.138.112.511.091.631.7.667.783.051.825-.312,1.195-.873a4.55,4.55,0,0,1,1.839-1.647c.73-.476,1.221-1.336,1.988-1.783.81-.476,1.725-.4,2.593-.845.34.851.638,1.406.026,2.265-.339.482-1.263,1.434-.545,2.045.852.732,1.505-.49,2.138-.583.6-.092.738.212,1.029.667.511.774.391.768,1.293.526.694-.185,1.541-.071,2.115-.476.782-.54.491-1.413,1.116-2.144.688-.817,1.8-.809,2.8-.881a8.049,8.049,0,0,0,1.762,0c.4-.128.447-.5.866-.568.156-.731.93-.973,1.463-1.342.966-.661,1.257-1.839,1.924-2.719a11.571,11.571,0,0,1,2.861-2.558,8.822,8.822,0,0,1,1.25-.767c.213-.092.455-.135.661-.22.1-.035.725-.312.8-.32.837-.085,1.292.618,2.039.76-.313.555-1.392.966-1.9,1.386a6.351,6.351,0,0,0-1.634,2.222,15.569,15.569,0,0,0-1.021,1.989c-.121.341-.582,1.065-.334,1.441s1.286.192,1.591,0c.8-.519.532-1.505,1.754-1.435a5.509,5.509,0,0,1,2.315,1.023,9.41,9.41,0,0,1,1.633,1.291c.362.313.752.427,1.121.7.384.291.5.745.966.9a8.654,8.654,0,0,0,2.307-.014c.932,0,1.92.085,2.85,0s1.137-.4,1.732-1.065c.255-.292.682-.582.9-.873.284-.383.157-.9.732-1.094a8.63,8.63,0,0,1,2.137.013,6.737,6.737,0,0,0,2.849-.852c.689-.327,1.654-.88,2.471-.589.88.312.476,1.562.568,2.3.569-.014,1.286.164,1.924.207a5.291,5.291,0,0,1,2.038.341,13.2,13.2,0,0,1,1.472,1.25c.375.3.638.873,1.114,1.135.347.2.717.249,1.066.468.24.158.432.37.659.533.25.177.958.44,1.095.7.355.717-.47.966-.917,1.03a17.129,17.129,0,0,1-2.486.042,2.406,2.406,0,0,0-1.377.212c-.384.234-.434.888-.738,1.009-.577.219-.732-.406-1.087-.7a5.781,5.781,0,0,0-1.2-.7,3.432,3.432,0,0,0-2.13-.355,2.111,2.111,0,0,0-1.761,1.427c-.4.98-.526,1.066-1.605,1.066-1.506-.007-2.649-.178-3.736.93-.482.483-2.108,3.16-2.8,2.962-.312-.725.909-1.166.662-2.088-1.42-.2-2.444.212-2.486,1.718-.448.165-.753-.2-1.193-.12a7.6,7.6,0,0,1-1.491,3.3c-.284.454-.625.873-.881,1.328-.333.582-.689,1.179-.987,1.767-.284.554-.5,1.158-.745,1.747a10.057,10.057,0,0,0-.9,1.99,18.715,18.715,0,0,0-.519,2.9c.107-.554.985-1.314,1.364-1.577a5.711,5.711,0,0,0,2.016-2.209,11.309,11.309,0,0,1,1.238-2.364c.5-.619,1.177-1.769,1.916-2.117a5.9,5.9,0,0,1-.049,2.117,10.623,10.623,0,0,1-.492,1.284c-.114.263-.368.5-.467.726-.065.149.049.368-.014.482a20.17,20.17,0,0,0-2.153,4.609c-.433,1.725.2,3.636-.149,5.369a6.2,6.2,0,0,0-.376,1.6c.008.519,0,1.037,0,1.555,0,.7.085,1.464.021,2.146-.086.838-.619,1.491-.773,2.3-.151.76-.562,1.526-.676,2.3-.163,1.045.234,1.072.9,1.584,1.016.787.867,1.54,1.058,2.684a17.2,17.2,0,0,1,.541,3.054,9.331,9.331,0,0,0-.008,1.605,3.99,3.99,0,0,0,.8,1.413,10.137,10.137,0,0,1,.93,2.258,9.147,9.147,0,0,0,1.619,2.5c1.043,1.293,2.081,1.94,3.586.7.5-.412,1.292-.795,1.726-1.229a10.761,10.761,0,0,0,1.279-2.179c1.015-1.626,2.37-3,2.492-4.929.1-1.526,0-3.089,0-4.617a9.972,9.972,0,0,0-.171-3.195,10.95,10.95,0,0,0-1.917-2.883,9.12,9.12,0,0,1-1.428-2.656c-.376-1.1.171-1.8.142-2.976-.02-.8-.41-.845-.674-1.463s.115-1.072.363-1.562a14.777,14.777,0,0,0,1.242-4.27,22.67,22.67,0,0,1,.532-3.642c.234-.774.7-1.052,1.158-1.662.4-.525.6-1.435,1.257-1.732.162,1.257-.171,2.634,1.6,2.393.028-.412.525-.895.682-1.349a4.347,4.347,0,0,0,.227-1.634c0-1.754.569-2.422,2.124-3.246-.448-.49-1.591-1.128-1.349-1.938.134-.462.788-.66,1.136-.895a4.188,4.188,0,0,0,.923-.98c.6-.732,1.847-1.939,2.855-1.343.618.363.219.533,1.072.59.7.043,1.62-.185,2.208.17.811.482.76,1.648,1.683,1.967a25.313,25.313,0,0,0,2.707.384,14.98,14.98,0,0,1,2.257.859c.576.228,1.407.931,1.045,1.769-.334.788-1.634.965-1.393,1.959.114.484.306.363.717.661a1.293,1.293,0,0,1,.654.923c.533,1.548.81,3.985.042,5.483-.368.732-.568,1.407-.909,2.167-.369.816-1.1,1.434-1.4,2.307a4.911,4.911,0,0,0-.17,1.946,1.2,1.2,0,0,0,1.782,1.087c.59-.234,1.314-1.592,1.606-2.117.312-.575.51-1.676,1-2.045.263-.191.646-.141.952-.291.362-.178.518-.625,1.072-.737a6.125,6.125,0,0,1,1.981,0c.5.29.327,1.554.654,2.18a17.431,17.431,0,0,1,1.3,2.506c.4,1.172.7,3.245,2.053,3.53-.05.4.007.916.533.887a8.941,8.941,0,0,1,.071,1,8.024,8.024,0,0,1-.213,2.167c-.156.589-.22,1.179-.37,1.768a13.928,13.928,0,0,0-.7,2.137c-.12,1.45-.306,1.883-1.59,2.565-.512.276-1.492.866-1.62,1.512-.178.924,1.178,1.321.881,2.117a1.214,1.214,0,0,0-.376.042h-.036a2.152,2.152,0,0,0-1.3.688,2.8,2.8,0,0,0-.412,2.67,2.284,2.284,0,0,0,.412.455,2.114,2.114,0,0,0,.667.447c.313.085.76-.148,1.073-.036.894.327.6,1.513,1.271,1.932.789.49,1.449-.746,2.088-.653.228.035.654.425.917.5a5.747,5.747,0,0,0,1.748.185c.951-.006,1.768.241,2.371-.533.625-.816.583-1.675,1.719-1.775a3.193,3.193,0,0,0,1.938-.752,13.43,13.43,0,0,0,2.366-1.9c1.145-1.17,2.606-1.909,3.862-2.981.811-.689,1.648-1.335,2.508-1.968.895-.667,1.8-1.32,2.706-1.987.866-.64,1.9-1.222,2.74-1.961a5.278,5.278,0,0,0,.967-1.058c.4-.59.908-1.052,1.327-1.621.164-.22.185-.51.4-.7.185-.17.378-.064.541-.185a6.056,6.056,0,0,0,1.392-1.342c.121-.2-.05-.419.05-.618.141-.284.39-.433.575-.682a4.4,4.4,0,0,0,.483-.866,1.444,1.444,0,0,0-.383-1.371,9.293,9.293,0,0,0-.746-.731l-.072-.069a.716.716,0,0,1-.258-.282,1.453,1.453,0,0,1-.323-.97,1.572,1.572,0,0,0-.141-.326l.112-1.058a.643.643,0,0,1,.049-.179c.107-.241.363-.312.519-.489s.142-.412.326-.583c.711-.681,1.6-.533,2.507-.525,1.208.007,2.045-.546,3.161-.7a42.9,42.9,0,0,1,5.518-.185,5.925,5.925,0,0,0,2.806-.319,23.336,23.336,0,0,0,2.506-1.37,9.927,9.927,0,0,0,1.669-1.407c.775-.824.775-1.875,1.513-2.77.163-.2.6-.447.6-.7.008-.439-.555-.453-.7-.788-.476-1.058.7-1.882.008-2.635-.4-.433-1.129-.532-1.471-.973a.872.872,0,0,1-.184-.412c-.156-1.008,1.015-1.341,1.655-1.761,1.816-1.207,1.49-3.231,2.492-4.985.448-.781,1.136-1.108,1.555-1.8a9.012,9.012,0,0,1,1.776-2.159c1.4-1.235,3.281-1.371,5-1.839.349-.092.689-.2,1.03-.312,1.548-.5,3-1.158,4.488-1.7.774-.277,1.64-.427,2.428-.71.165-.058.328-.114.5-.163a12.7,12.7,0,0,1,2.358-.5,11.781,11.781,0,0,0,2.627-.434c.731-.248,1.4-.824,2.152-1.079.725-.242,1.548-.448,2.3-.668,1.89-.554,3.893-.49,4.226-2.548a3.554,3.554,0,0,0,.049-.641,7.041,7.041,0,0,1-.014-1.1c.156-.8.5-.752,1.122-1.023a3.516,3.516,0,0,1,1.178-.283c.321-.029.66-.029,1.087-.079.66-.07.433-.049.7-.532a9.5,9.5,0,0,0,.874-1.286c.241-.9-1.344-1.363-.846-2.443.391-.83,1.591-1.2,1.947-2.13a4.895,4.895,0,0,0,.169-2.13c-.084-.405-.376-.675-.5-1.108s.042-.91-.069-1.335c-.038-.128-.292-.178-.342-.384a3.577,3.577,0,0,1,.015-.774,2.6,2.6,0,0,1,.362-1.194,5.055,5.055,0,0,0,.524-2.307,12.211,12.211,0,0,1,.384-4.488,3.767,3.767,0,0,0,.37-1.392c.035-.391.327-.717.411-1.037a31.752,31.752,0,0,1,.8-3.714c.588-1.512,1.391-.212,1.633.625.333,1.165,1.527,1.868,2.579.909.425-.377.653-1,1.115-1.4a12.742,12.742,0,0,1,1.944-1.037c.661-.384,1.023-.98,1.776-1.073.781-.093,1.059.263,1.548.76.74.753,2.244,1.661,2.358,2.791a7.748,7.748,0,0,0,.9,3.658,16.353,16.353,0,0,1,1.406,3.309,30.157,30.157,0,0,0,1.47,4.233c.227.426.533,1.208.967,1.456.83.489,1.122-.376,1.789-.576a19.141,19.141,0,0,1,1.109,2.465,5.607,5.607,0,0,0,.476,1.25c.263.412.674.745.782,1.221.56.086,1.419-.169,1.938.057a1.5,1.5,0,0,1,.682.8l.006.008v.028c.1.192.178.391.271.554a.68.68,0,0,0,.262.028.64.64,0,0,1-.093.242c.349.468,1.017.844,1.186,1.321C5527.637,3721.074,5526.771,3721.807,5526.323,3722.275ZM5101.2,3695.16c.324.172.734.128,1.04.353.074.054.612.813.468.8.264.03.877-.181.839-.557s-.7-.224-.7-.649c-.177-.178,0-.533.178-.71.355-.355.887-.533.887-1.065-.177-.355-.532-.533-.709-.888,0-.177-.178-.354-.356-.532-.354-.355-1.065,0-1.6,0-.888.178-1.953.355-1.42,1.6A3.23,3.23,0,0,0,5101.2,3695.16Z" transform="translate(-4891.42 -2519.576)" fill="#f4f4f4"></path><g id="Group_1526" data-name="Group 1526"><rect id="Rectangle_3597" data-name="Rectangle 3597" width="84" height="70" transform="translate(181 1343)" fill="#fff"></rect><g id="Group_1525" data-name="Group 1525" transform="translate(154 1339.698)"><g id="Group_1524" data-name="Group 1524" transform="translate(0 0)" clip-path="url(#clip-path)"><path id="Path_15429" data-name="Path 15429" d="M2.592,13H24.838V5.347A5.358,5.358,0,0,1,30.192,0h77.283a5.357,5.357,0,0,1,5.347,5.347V21.5h20.872a2.594,2.594,0,0,1,2.245,1.3l10.518,18.253h6.327a2.591,2.591,0,0,1,2.592,2.592V72.63a2.586,2.586,0,0,1-2.592,2.585h-7.558a13.953,13.953,0,0,1-27.43,0h-7.565a2.491,2.491,0,0,1-1.123-.279,5.2,5.2,0,0,1-1.633.279H73.616a13.953,13.953,0,0,1-27.43,0H30.192a5.354,5.354,0,0,1-5.354-5.347V46.234H8.109a2.589,2.589,0,1,1,0-5.177H24.838V32.206H21.913a2.589,2.589,0,1,1,0-5.177h2.925V18.178H2.592a2.589,2.589,0,1,1,0-5.177M132.2,26.682H112.823V41.057h27.661Zm-.687,54.745a8.8,8.8,0,1,0-8.8-8.8,8.806,8.806,0,0,0,8.8,8.8M112.823,70.038H117.8a13.953,13.953,0,0,1,27.43,0H150.2v-23.8H112.823v23.8ZM59.9,81.426a8.8,8.8,0,1,0-8.8-8.8,8.806,8.806,0,0,0,8.8,8.8m-29.825-54.4H61.7a2.589,2.589,0,0,1,0,5.177H30.09l.02,8.851H47.9a2.589,2.589,0,1,1,0,5.177H30.124l.068,23.8H46.186a13.954,13.954,0,0,1,27.43-.007l34.029-.163-.17-64.691-77.453.17L30.036,13H42.377a2.589,2.589,0,1,1,0,5.177H30.056Z" transform="translate(0 0.002)" fill="#6e47d1"></path></g></g></g><g id="Group_1497" data-name="Group 1497" transform="translate(-27.403 37.391)"><path id="Path_15365" data-name="Path 15365" d="M598.822,1625.048c0,2.58-10.363,4.672-23.146,4.672s-23.146-2.092-23.146-4.672,10.363-4.672,23.146-4.672,23.146,2.092,23.146,4.672" transform="translate(-215.504 -299.661)" fill="#1d252c" opacity="0.1"></path><path id="Path_15366" data-name="Path 15366" d="M3259.086,1032.256c0,1.979-7.949,3.583-17.753,3.583s-17.754-1.6-17.754-3.583,7.949-3.583,17.754-3.583,17.753,1.6,17.753,3.583" transform="translate(-2670.939 243.824)" fill="#1d252c" opacity="0.1"></path><path id="Path_15367" data-name="Path 15367" d="M1580.852,461.5c0,1.481-5.949,2.682-13.288,2.682s-13.288-1.2-13.288-2.682,5.949-2.682,13.288-2.682,13.288,1.2,13.288,2.682" transform="translate(-1135.617 767.245)" fill="#1d252c" opacity="0.1"></path><path id="Path_15368" data-name="Path 15368" d="M17.765,325.157c0,.99-3.977,1.793-8.883,1.793S0,326.147,0,325.157s3.977-1.793,8.882-1.793,8.883.8,8.883,1.793" transform="translate(292 891.657)" fill="#1d252c" opacity="0.15"></path><path id="Path_15369" data-name="Path 15369" d="M610.446,964.2c1.992,0,3.772-2.742,3.772-2.742l11.5-17.8c12.963-19.12-3.385-32.664-15.273-32.6-12.282-.061-28.236,13.483-15.273,32.6l11.5,17.8s1.78,2.744,3.772,2.742" transform="translate(-250.244 351.849)" fill="#53c0a6"></path><path id="Path_15370" data-name="Path 15370" d="M711.466,1018.31a10.731,10.731,0,1,1-10.731-10.731,10.731,10.731,0,0,1,10.731,10.731" transform="translate(-340.564 263.199)" fill="#fff"></path><path id="Path_15371" data-name="Path 15371" d="M3267.957,525.373c-1.528,0-2.894-2.1-2.894-2.1l-8.822-13.649c-9.943-14.665,2.6-25.054,11.715-25.008,9.42-.047,21.657,10.342,11.714,25.008l-8.822,13.649s-1.365,2.1-2.892,2.1" transform="translate(-2697.586 743.549)" fill="#53c0a6"></path><path id="Path_15372" data-name="Path 15372" d="M3329.025,565.817a7.174,7.174,0,1,0,7.174-7.174,7.174,7.174,0,0,0-7.174,7.174" transform="translate(-2765.804 676.053)" fill="#fff"></path><path id="Path_15373" data-name="Path 15373" d="M1587.492,82.1c-1.144,0-2.166-1.574-2.166-1.574l-6.6-10.216c-7.442-10.977,1.943-18.753,8.769-18.718,7.051-.035,16.21,7.741,8.768,18.718l-6.6,10.216s-1.022,1.575-2.165,1.574" transform="translate(-1155.562 1141.279)" fill="#53c0a6"></path><path id="Path_15374" data-name="Path 15374" d="M1633.2,112.374a5.369,5.369,0,1,0,5.37-5.369,5.37,5.37,0,0,0-5.37,5.369" transform="translate(-1206.623 1090.694)" fill="#fff"></path><path id="Path_15375" data-name="Path 15375" d="M22.2,71.549c-.764,0-1.447-1.052-1.447-1.052l-4.414-6.829c-4.975-7.338,1.3-12.535,5.861-12.512,4.713-.023,10.836,5.174,5.861,12.512L23.651,70.5s-.683,1.053-1.447,1.052" transform="translate(278.668 1141.683)" fill="#53c0a6"></path><path id="Path_15376" data-name="Path 15376" d="M52.758,91.8a3.606,3.606,0,1,0,3.606-3.606A3.606,3.606,0,0,0,52.758,91.8" transform="translate(244.519 1108.655)" fill="#fff"></path><path id="Path_15377" data-name="Path 15377" d="M1009.388,687.9c24.755-49.289,116.651-91.4,180.178-44.576" transform="translate(-632.013 623.174)" fill="none" stroke="#1a1818" stroke-linecap="round" stroke-width="3" stroke-dasharray="5 15"></path><path id="Path_15378" data-name="Path 15378" d="M1830.845,196.907c25.547-38.77,100.249-7.648,110.117,35" transform="translate(-1388.697 1022.6)" fill="none" stroke="#1a1818" stroke-linecap="round" stroke-width="3" stroke-dasharray="5 15"></path><path id="Path_15379" data-name="Path 15379" d="M232.516,24.972C252.559-4.136,319.15,0,345.173,39.13" transform="translate(78.432 1183.156)" fill="none" stroke="#1a1818" stroke-linecap="round" stroke-width="3" stroke-dasharray="5 15"></path></g></g></svg> 